<?xml version="1.0" encoding="utf-8"?>
<!-- Generator: Adobe Illustrator 24.1.2, SVG Export Plug-In . SVG Version: 6.00 Build 0)  -->
<svg version="1.1" id="레이어_1" xmlns="http://www.w3.org/2000/svg" xmlns:xlink="http://www.w3.org/1999/xlink" x="0px"
	 y="0px" viewBox="0 0 24 24" style="enable-background:new 0 0 24 24;" xml:space="preserve">
<style type="text/css">
	.st0{fill:none;}
</style>
<path class="st0" d="M5.6,3.6h16.8v16.8H5.6V3.6z"/>
<path d="M14,19c-3.9,0-7-3.1-7-7s3.1-7,7-7s7,3.1,7,7S17.9,19,14,19z M14,17.6c3.1,0,5.6-2.5,5.6-5.6S17.1,6.4,14,6.4
	S8.4,8.9,8.4,12S10.9,17.6,14,17.6z M13.3,14.1h1.4v1.4h-1.4V14.1z M13.3,8.5h1.4v4.2h-1.4V8.5z"/>
</svg>
