<?xml version="1.0" encoding="utf-8"?>
<!-- Generator: Adobe Illustrator 24.1.2, SVG Export Plug-In . SVG Version: 6.00 Build 0)  -->
<svg version="1.1" id="레이어_1" xmlns="http://www.w3.org/2000/svg" xmlns:xlink="http://www.w3.org/1999/xlink" x="0px"
	 y="0px" viewBox="0 0 24 24" style="enable-background:new 0 0 24 24;" xml:space="preserve">
<style type="text/css">
	.st0{fill:none;}
</style>
<path class="st0" d="M3.6,3.6h16.8v16.8H3.6V3.6z"/>
<path d="M8.4,17.6v-4.2c0-3.1,2.5-5.6,5.6-5.6s5.6,2.5,5.6,5.6v4.2h0.7V19H7.7v-1.4H8.4z M9.8,17.6h8.4v-4.2c0-2.3-1.9-4.2-4.2-4.2
	s-4.2,1.9-4.2,4.2V17.6z M13.3,5h1.4v2.1h-1.4V5z M19.4,7l1,1L19,9.4l-1-1C18,8.5,19.4,7,19.4,7z M7.6,8l1-1L10,8.4l-1,1L7.6,8z
	 M10.5,13.4c0-1.9,1.6-3.5,3.5-3.5v1.4c-1.2,0-2.1,0.9-2.1,2.1H10.5z"/>
</svg>
