<?xml version="1.0" encoding="utf-8"?>
<!-- Generator: Adobe Illustrator 24.1.2, SVG Export Plug-In . SVG Version: 6.00 Build 0)  -->
<svg version="1.1" id="레이어_1" xmlns="http://www.w3.org/2000/svg" xmlns:xlink="http://www.w3.org/1999/xlink" x="0px"
	 y="0px" viewBox="0 0 24 24" style="enable-background:new 0 0 24 24;" xml:space="preserve">
<style type="text/css">
	.st0{fill:none;}
</style>
<path class="st0" d="M5.6,3.6h16.8v16.8H5.6V3.6z"/>
<path d="M16.3,6.8l-4.7,4.7L11.1,13l-0.7,0.7l2,2l0.7-0.7l1.5-0.5l4.7-4.7L16.3,6.8z M20.7,9.2c0.3,0.3,0.3,0.7,0,1l-5.4,5.4
	l-1.5,0.5l-1,1c-0.3,0.3-0.7,0.3-1,0l-3-3c-0.3-0.3-0.3-0.7,0-1l1-1l0.5-1.5l5.4-5.4c0.3-0.3,0.7-0.3,1,0
	C16.8,5.3,20.7,9.2,20.7,9.2z M16.3,8.7l1,1l-3.5,3.5l-1-1C12.8,12.2,16.3,8.7,16.3,8.7z M8.6,15.4l2,2l-1,1l-3-1L8.6,15.4L8.6,15.4
	z"/>
</svg>
