<?xml version="1.0" encoding="utf-8"?>
<!-- Generator: Adobe Illustrator 24.1.2, SVG Export Plug-In . SVG Version: 6.00 Build 0)  -->
<svg version="1.1" id="레이어_1" xmlns="http://www.w3.org/2000/svg" xmlns:xlink="http://www.w3.org/1999/xlink" x="0px"
	 y="0px" viewBox="0 0 24 24" style="enable-background:new 0 0 24 24;" xml:space="preserve">
<style type="text/css">
	.st0{fill:none;}
</style>
<path class="st0" d="M5.6,3.6h16.8v16.8H5.6V3.6z"/>
<path d="M14.7,18.3v1.4h-1.4v-1.4H7.7C7.3,18.3,7,18,7,17.6V6.4C7,6,7.3,5.7,7.7,5.7h4.2c0.8,0,1.6,0.3,2.1,0.9
	c0.5-0.6,1.3-0.9,2.1-0.9h4.2C20.7,5.7,21,6,21,6.4v11.2c0,0.4-0.3,0.7-0.7,0.7H14.7z M19.6,16.9V7.1h-3.5c-0.8,0-1.4,0.6-1.4,1.4
	v8.4H19.6z M13.3,16.9V8.5c0-0.8-0.6-1.4-1.4-1.4H8.4v9.8H13.3z"/>
</svg>
